HIERARCHY
ROOT Hips
{
	OFFSET -0.001795 -0.223333 0.028219
	CHANNELS 6 Xposition Yposition Zposition Zrotation Yrotation Xrotation 
	JOINT LeftUpLeg
	{
		OFFSET 0.069520 -0.091406 -0.006815
		CHANNELS 3 Zrotation Yrotation Xrotation
		JOINT LeftLeg
		{
			OFFSET 0.034277 -0.375199 -0.004496
			CHANNELS 3 Zrotation Yrotation Xrotation
			JOINT LeftFoot
			{
				OFFSET -0.013596 -0.397961 -0.043693
				CHANNELS 3 Zrotation Yrotation Xrotation
				JOINT LeftToe
				{
					OFFSET 0.026358 -0.055791 0.119288
					CHANNELS 3 Zrotation Yrotation Xrotation
					End Site
					{
						OFFSET 0.000000 0.000000 0.000000
					}
				}
			}
		}
	}
	JOINT RightUpLeg
	{
		OFFSET -0.067670 -0.090522 -0.004320
		CHANNELS 3 Zrotation Yrotation Xrotation
		JOINT RightLeg
		{
			OFFSET -0.038290 -0.382569 -0.008850
			CHANNELS 3 Zrotation Yrotation Xrotation
			JOINT RightFoot
			{
				OFFSET 0.015774 -0.398415 -0.042312
				CHANNELS 3 Zrotation Yrotation Xrotation
				JOINT RightToe
				{
					OFFSET -0.025372 -0.048144 0.123348
					CHANNELS 3 Zrotation Yrotation Xrotation
					End Site
					{
						OFFSET 0.000000 0.000000 0.000000
					}
				}
			}
		}
	}
	JOINT Spine
	{
		OFFSET -0.002533 0.108963 -0.026696
		CHANNELS 3 Zrotation Yrotation Xrotation
		JOINT Spine1
		{
			OFFSET 0.005487 0.135180 0.001092
			CHANNELS 3 Zrotation Yrotation Xrotation
			JOINT Spine2
			{
				OFFSET 0.001457 0.052922 0.025425
				CHANNELS 3 Zrotation Yrotation Xrotation
				JOINT Neck
				{
					OFFSET -0.002778 0.213870 -0.042857
					CHANNELS 3 Zrotation Yrotation Xrotation
					JOINT Head
					{
						OFFSET 0.005152 0.064970 0.051349
						CHANNELS 3 Zrotation Yrotation Xrotation
						End Site
						{
							OFFSET 0.000000 0.000000 0.000000
						}
					}
				}
				JOINT LeftShoulder
				{
					OFFSET 0.078845 0.121749 -0.034090
					CHANNELS 3 Zrotation Yrotation Xrotation
					JOINT LeftArm
					{
						OFFSET 0.090977 0.030469 -0.008868
						CHANNELS 3 Zrotation Yrotation Xrotation
						JOINT LeftForeArm
						{
							OFFSET 0.259612 -0.012772 -0.027456
							CHANNELS 3 Zrotation Yrotation Xrotation
							JOINT LeftHand
							{
								OFFSET 0.249234 0.008986 -0.001171
								CHANNELS 3 Zrotation Yrotation Xrotation
								End Site
								{
									OFFSET 0.000000 0.000000 0.000000
								}
							}
						}
					}
				}
				JOINT RightShoulder
				{
					OFFSET -0.081759 0.118833 -0.038615
					CHANNELS 3 Zrotation Yrotation Xrotation
					JOINT RightArm
					{
						OFFSET -0.096012 0.032551 -0.009143
						CHANNELS 3 Zrotation Yrotation Xrotation
						JOINT RightForeArm
						{
							OFFSET -0.253742 -0.013329 -0.021401
							CHANNELS 3 Zrotation Yrotation Xrotation
							JOINT RightHand
							{
								OFFSET -0.255298 0.007772 -0.005559
								CHANNELS 3 Zrotation Yrotation Xrotation
								End Site
								{
									OFFSET 0.000000 0.000000 0.000000
								}
							}
						}
					}
				}
			}
		}
	}
}
MOTION
Frames: 10
Frame Time: 0.050000
-0.085848 0.923509 0.278842 -2.968694 4.145152 7.972781 21.387864 0.856031 -19.863761 -6.788968 1.090860 21.000790 6.021684 14.727700 12.424724 0.000000 0.000000 0.000000 7.840702 4.480508 -29.557650 -2.655579 2.015784 32.838989 -3.223038 -8.888651 2.815028 0.000000 0.000000 0.000000 -7.680381 0.582762 20.679159 -0.522420 0.680602 -16.323416 -14.357640 -13.832382 29.022051 5.608288 -4.990143 -11.624332 0.000000 0.000000 0.000000 -12.667923 -28.980604 15.412277 -42.925072 -49.780454 12.282286 30.090885 -20.946804 -3.794092 0.000000 0.000000 0.000000 -30.790186 12.030715 4.350228 -0.492113 31.483558 -3.593978 -52.938329 13.466622 -8.509230 0.000000 0.000000 0.000000 
-0.087025 0.923686 0.281692 -3.149458 4.065112 6.973903 21.656559 0.856267 -18.933033 -6.345052 0.964394 21.357357 5.925822 14.550546 12.330964 0.000000 0.000000 0.000000 8.326841 4.382899 -28.097782 -2.556784 1.971395 32.718997 -3.059406 -8.284207 1.950270 0.000000 0.000000 0.000000 -8.471937 0.682685 18.051985 -1.356721 0.922439 -15.307258 -14.002618 -12.831522 28.948055 6.300503 -5.380171 -11.969780 0.000000 0.000000 0.000000 -13.770467 -28.366057 15.288791 -43.159845 -48.846694 11.743365 31.212326 -23.408958 -4.489547 0.000000 0.000000 0.000000 -31.692118 11.031167 4.034836 -1.006863 29.052064 -3.171943 -51.726318 10.186139 -6.576331 0.000000 0.000000 0.000000 
-0.086959 0.923322 0.283630 -3.368831 4.892517 6.204433 21.654299 0.770047 -18.614111 -5.538575 0.669830 21.770728 5.452324 13.793629 11.726715 0.000000 0.000000 0.000000 8.652475 4.216566 -26.830987 -2.207789 1.715531 32.534899 -3.420894 -9.084493 1.829294 0.000000 0.000000 0.000000 -9.014635 0.695896 16.643187 -1.741176 1.069033 -16.086755 -13.702632 -12.333835 29.562186 6.726705 -5.432207 -13.732761 0.000000 0.000000 0.000000 -14.384629 -27.295589 14.748360 -43.985334 -48.366176 11.683611 32.755232 -25.535857 -5.222968 0.000000 0.000000 0.000000 -33.070154 10.255880 3.687760 -2.148397 27.052259 -2.940430 -47.078919 5.382078 -3.636733 0.000000 0.000000 0.000000 
-0.084835 0.923541 0.285018 -3.541712 4.960200 5.089122 21.792536 0.783633 -18.161025 -5.698769 0.701802 22.530317 5.538626 13.886000 11.451145 0.000000 0.000000 0.000000 9.121873 4.037123 -25.019215 -2.299121 1.713967 31.962048 -3.832005 -9.938718 1.241938 0.000000 0.000000 0.000000 -9.470974 0.701244 15.328817 -2.125430 1.192430 -16.229581 -13.184485 -11.096418 29.348732 7.550818 -5.561868 -16.004493 0.000000 0.000000 0.000000 -14.549559 -26.556578 14.115032 -44.559368 -48.180293 11.728547 33.393747 -25.914426 -5.471394 0.000000 0.000000 0.000000 -33.077187 10.209625 3.331084 -4.309547 25.247149 -2.813827 -41.800696 0.624574 -1.121758 0.000000 0.000000 0.000000 
-0.080659 0.922938 0.286524 -3.372106 5.007354 4.391060 21.222687 0.723723 -17.896410 -5.210471 0.536202 23.411065 5.350420 13.556709 11.237646 0.000000 0.000000 0.000000 8.752705 3.811210 -23.968560 -1.562217 1.405972 32.246778 -4.117058 -10.482856 0.498443 0.000000 0.000000 0.000000 -9.372331 0.622419 13.680543 -2.869256 1.421137 -16.874686 -12.897352 -10.489676 29.363632 8.020523 -5.483631 -18.213236 0.000000 0.000000 0.000000 -15.247447 -26.188164 13.995803 -45.434175 -48.218197 12.005196 33.474371 -25.518697 -5.388859 0.000000 0.000000 0.000000 -33.403441 10.219780 3.153333 -7.041181 25.267765 -3.111474 -35.030741 -3.261071 0.429791 0.000000 0.000000 0.000000 
-0.074731 0.922163 0.288619 -3.647654 5.343215 3.326262 20.884441 0.624289 -16.984184 -4.904922 0.396377 23.972955 5.455723 13.513859 9.897027 0.000000 0.000000 0.000000 8.864160 3.601061 -22.474548 -1.575284 1.348885 31.847075 -4.449000 -11.273518 0.420117 0.000000 0.000000 0.000000 -9.151737 0.517014 12.304035 -3.295899 1.558731 -17.203366 -12.431368 -9.484621 29.248849 8.878392 -5.379591 -21.299903 0.000000 0.000000 0.000000 -15.820676 -25.411188 13.457089 -46.823353 -48.213675 12.444261 32.242529 -25.057570 -5.076277 0.000000 0.000000 0.000000 -33.145490 10.379874 2.834298 -8.281500 24.759063 -3.058501 -31.270956 -4.909208 1.001257 0.000000 0.000000 0.000000 
-0.067464 0.920708 0.291668 -3.544396 5.614077 2.361230 20.275450 0.507839 -16.028498 -4.815589 0.333038 24.105484 5.733049 13.838280 9.128911 0.000000 0.000000 0.000000 8.392446 3.306582 -21.034043 -1.257203 1.179132 32.025804 -4.165064 -10.445333 -0.308802 0.000000 0.000000 0.000000 -8.995740 0.435815 11.096003 -3.193698 1.537551 -17.450210 -12.339507 -9.086054 29.291173 9.377380 -5.329309 -22.974885 0.000000 0.000000 0.000000 -17.187740 -24.727457 13.342357 -47.340423 -47.964590 12.397868 30.668987 -24.909139 -4.752652 0.000000 0.000000 0.000000 -32.659930 10.795842 2.719084 -9.890975 25.418872 -3.343330 -28.377904 -5.945094 1.225746 0.000000 0.000000 0.000000 
-0.059141 0.922160 0.295373 -3.610664 5.626298 1.294649 19.503590 0.354829 -14.186948 -4.129644 0.115753 23.457329 5.733808 13.698492 8.417965 0.000000 0.000000 0.000000 8.527483 3.040820 -19.080919 -1.834994 1.381138 31.037578 -3.697959 -9.313662 -0.139922 0.000000 0.000000 0.000000 -8.473576 0.319866 9.555265 -3.403904 1.607640 -17.361951 -12.370327 -8.368740 28.803818 9.766958 -5.102020 -24.722103 0.000000 0.000000 0.000000 -18.398408 -23.822370 12.964179 -47.950920 -47.268121 12.219581 28.005451 -24.466449 -4.196203 0.000000 0.000000 0.000000 -32.089646 10.611457 2.573670 -10.193103 26.094275 -3.440440 -26.224044 -4.029822 0.845149 0.000000 0.000000 0.000000 
-0.049605 0.926181 0.299142 -3.645714 5.909337 0.635312 18.859600 0.177345 -12.095967 -3.847754 0.061477 21.231339 5.758441 13.702260 8.213375 0.000000 0.000000 0.000000 8.254076 2.665550 -16.885810 -1.994897 1.363654 29.305391 -3.287226 -8.273944 -0.245969 0.000000 0.000000 0.000000 -8.159661 0.242345 8.122714 -3.535767 1.652117 -17.768605 -12.577440 -7.547877 28.783375 11.046963 -5.433039 -26.051724 0.000000 0.000000 0.000000 -19.245222 -23.067415 12.486083 -49.137259 -47.082327 12.526154 25.930050 -24.085074 -3.770614 0.000000 0.000000 0.000000 -31.500954 10.275472 2.352321 -9.591803 26.476758 -3.328348 -24.725700 -2.754015 0.653502 0.000000 0.000000 0.000000 
-0.038824 0.931957 0.302129 -3.729925 6.092846 0.135650 18.164977 0.006718 -9.794873 -3.634138 0.040608 19.242646 5.916223 14.052689 8.738103 0.000000 0.000000 0.000000 8.001386 2.351063 -15.024433 -2.702062 1.546672 27.202999 -2.934631 -7.512765 0.238096 0.000000 0.000000 0.000000 -7.336071 0.150617 6.723328 -4.050967 1.806549 -18.073133 -12.867628 -7.030540 28.669219 11.541344 -5.404756 -27.040228 0.000000 0.000000 0.000000 -19.564751 -21.761366 11.667140 -50.763163 -46.933235 13.040439 23.692528 -24.102664 -3.354404 0.000000 0.000000 0.000000 -31.334708 9.814061 2.191189 -9.963698 27.252490 -3.463035 -23.274072 -2.343721 0.601957 0.000000 0.000000 0.000000 
